<svg width="1440" height="370" viewBox="0 0 1440 370" fill="none" xmlns="http://www.w3.org/2000/svg">
<path d="M1025 0L1250.55 2.86169L1472.24 11.3978L1686.28 25.4623L1889 44.8145L2076.94 69.1233L2246.88 97.9728L2395.91 130.869L2521.49 167.25L2610.71 202.27C2617.87 205.081 2624.82 208.406 2631.5 212.217L2676.41 237.823C2688.17 244.531 2699.03 252.704 2708.73 262.147L2724.49 277.479C2733.51 286.26 2740.32 297.057 2744.36 308.983V308.983C2749.96 325.533 2749.96 343.467 2744.36 360.017V360.017C2740.32 371.943 2733.51 382.74 2724.49 391.521L2708.73 406.853C2699.03 416.296 2688.17 424.469 2676.41 431.177L2631.5 456.783C2624.82 460.594 2617.87 463.919 2610.71 466.73L2521.49 501.75L2395.91 538.131L2246.88 571.027L2076.94 599.877L1889 624.185L1686.28 643.538L1472.24 657.602L1250.55 666.138L1025 669L799.451 666.138L577.761 657.602L363.723 643.538L161 624.185L-26.9397 599.877L-196.88 571.027L-345.915 538.131L-471.492 501.75L-560.706 466.73C-567.869 463.919 -574.819 460.594 -581.503 456.783L-626.405 431.177C-638.167 424.469 -649.031 416.296 -658.734 406.852L-674.489 391.521C-683.512 382.74 -690.322 371.943 -694.36 360.017V360.017C-699.964 343.467 -699.964 325.533 -694.36 308.983V308.983C-690.322 297.057 -683.512 286.26 -674.489 277.479L-658.734 262.148C-649.031 252.704 -638.167 244.531 -626.405 237.823L-581.503 212.217C-574.819 208.406 -567.869 205.081 -560.706 202.27L-471.492 167.25L-345.915 130.869L-196.88 97.9728L-26.9397 69.1233L161 44.8145L363.723 25.4623L577.761 11.3978L799.451 2.86169L1025 0Z" fill="#D6C9C9"/>
</svg>
