<?xml version="1.0" standalone="no"?>
<!DOCTYPE svg PUBLIC "-//W3C//DTD SVG 20010904//EN"
 "http://www.w3.org/TR/2001/REC-SVG-20010904/DTD/svg10.dtd">
<svg version="1.0" xmlns="http://www.w3.org/2000/svg"
 width="211.000000pt" height="219.000000pt" viewBox="0 0 211.000000 219.000000"
 preserveAspectRatio="xMidYMid meet">

<g transform="translate(0.000000,219.000000) scale(0.100000,-0.100000)"
fill="#000000" stroke="none">
<path d="M760 1846 c-42 -28 -82 -99 -101 -176 -8 -32 -14 -119 -14 -205 -1
-142 -3 -154 -30 -215 -37 -85 -46 -222 -21 -320 22 -83 67 -165 92 -165 19 0
21 6 9 37 -5 13 2 23 27 38 39 24 69 25 107 5 54 -28 66 -119 20 -161 -17 -15
-23 -16 -40 -6 -21 14 -39 8 -39 -11 0 -13 89 -71 125 -81 11 -3 49 -44 84
-91 159 -216 331 -266 416 -121 34 59 55 148 55 239 0 75 1 80 39 130 75 101
111 202 111 313 0 87 -9 126 -29 122 -13 -3 -15 -14 -12 -53 l3 -49 -23 16
c-34 22 -69 77 -69 108 0 31 19 90 28 90 4 0 15 -18 24 -40 17 -41 34 -51 44
-26 9 25 -58 137 -116 196 -57 57 -143 109 -218 131 -37 11 -49 22 -90 83 -60
90 -155 186 -213 214 -61 30 -124 29 -169 -2z m171 -44 c95 -61 193 -192 289
-387 205 -415 258 -934 108 -1060 -37 -31 -84 -32 -140 -4 -49 25 -132 101
-175 161 l-31 43 78 -3 c70 -4 123 3 199 24 23 7 24 6 18 -35 -9 -71 -41 -89
-90 -51 -22 18 -26 18 -38 4 -11 -14 -9 -19 11 -35 54 -41 110 -36 135 12 59
113 25 375 -90 709 -99 286 -232 503 -331 541 -56 21 -103 -31 -112 -123 -4
-43 -2 -48 15 -48 17 0 21 8 25 51 4 33 12 58 26 71 19 20 22 20 44 5 36 -25
51 -39 81 -76 l28 -34 -69 -27 c-79 -31 -119 -56 -179 -113 l-41 -40 -8 49
c-10 70 9 230 36 292 45 104 121 131 211 74z m115 -347 c102 -185 211 -538
238 -771 l6 -52 -42 -17 c-25 -10 -82 -20 -134 -23 -75 -4 -105 -1 -162 17
-39 12 -74 25 -77 30 -3 5 6 26 20 47 47 69 22 158 -55 196 -48 25 -91 22
-134 -7 -20 -14 -39 -25 -41 -25 -3 0 -14 32 -26 71 -30 100 -25 239 14 323
57 123 139 204 255 252 83 35 99 30 138 -41z m252 28 c31 -16 86 -56 121 -89
l63 -62 -22 -29 c-61 -83 -17 -221 83 -256 21 -8 21 -26 2 -100 -15 -57 -50
-134 -78 -171 -13 -18 -15 -12 -26 65 -26 183 -105 437 -187 602 -19 37 -29
67 -23 67 5 0 36 -12 67 -27z"/>
<path d="M819 1297 c-102 -69 -43 -227 79 -214 78 8 124 80 99 155 -14 44 -67
82 -112 82 -18 0 -47 -10 -66 -23z m121 -42 c47 -50 13 -135 -55 -135 -71 0
-105 90 -51 137 36 30 76 30 106 -2z"/>
<path d="M1035 965 c-30 -30 -32 -64 -4 -99 26 -33 79 -36 109 -6 30 30 27 83
-6 109 -35 28 -69 26 -99 -4z m73 -24 c8 -4 12 -19 10 -32 -2 -19 -9 -24 -33
-24 -33 0 -45 25 -25 50 14 17 29 19 48 6z"/>
<path d="M715 730 c-4 -6 -1 -17 5 -26 10 -11 16 -12 26 -3 11 9 11 15 3 25
-14 17 -25 18 -34 4z"/>
</g>
</svg>
